<?xml version="1.0" encoding="UTF-8"?>
<svg xmlns="http://www.w3.org/2000/svg" version="1.1" viewBox="0 0 144 144">
  <defs>
    <style>
      .cls-1 {
        fill: #999;
      }
    </style>
  </defs>
  <!-- Generator: Adobe Illustrator 28.6.0, SVG Export Plug-In . SVG Version: 1.2.0 Build 709)  -->
  <g>
    <g id="Layer_1">
      <g>
        <path class="cls-1" d="M132.9,72c0,33.6-27.3,60.9-60.9,60.9S11.1,105.6,11.1,72,38.4,11.1,72,11.1s60.9,27.3,60.9,60.9M144,72C144,32.3,111.7,0,72,0S0,32.3,0,72s32.3,72,72,72,72-32.3,72-72"/>
        <path class="cls-1" d="M86.9,92.4c-1.7.2-3.7.7-5.9,1.2-3.3.7-6.8,1.4-9,1.4s-5.7-.7-9-1.4h-.3c-2-.5-3.9-.9-5.7-1.2,3.1-8,10.2-31.3,14.9-47.4,3.8,13,11.5,38.9,14.9,47.4M106.1,34.1c-9.5,0-14,22.7-15.9,37.4l-16.5-51.8c-.4-1.4-2.6-1.7-3.3,0l-16.5,51.9c-1.9-14.7-6.5-37.4-15.9-37.4h-.2c-8.4.2-10.4,5.5-10.5,5.7l-.5,1.8,1.9.2c12.2,1.3,15.5,25.7,17.4,40.3v.7c1.3,8.3,1.8,11.7,3.4,12.8.2.1.4.2.6.3-.5,1.2-.9,2.7-1.5,4.4v.3c-1.7,4.9-3.8,11.7-6.7,14.4-1.4,1.2-1,2.4-.7,2.9.3.5,1.1,1.9,7.1,1.9s3.1,0,3.8-.3c.9-.2,2.8-.6,5.9-17.3,3.1.7,10.3,2.3,14,2.3s10.9-1.6,14-2.3c3.1,16.8,4.9,17.1,5.9,17.3.7.2,2.4.3,3.8.3,6,0,6.8-1.4,7-1.9.2-.5.7-1.7-.7-2.9-2.9-2.7-4.9-9.1-6.6-14.5v-.3c-.7-1.8-1.1-3.2-1.6-4.4.2-.1.5-.2.7-.4,1.6-1.2,2.2-5,3.4-13.5,2-14.6,5.3-39,17.6-40.3l1.7-.5-.6-1.8c-.5-1.2-3-5.2-10.5-5.3"/>
      </g>
    </g>
  </g>
</svg>