<?xml version="1.0" encoding="UTF-8"?>
<svg id="Layer_1" data-name="Layer 1" xmlns="http://www.w3.org/2000/svg" viewBox="0 0 183.44 199.81">
  <defs>
    <style>
      .cls-1 {
        fill: #ba2936;
      }
    </style>
  </defs>
  <path class="cls-1" d="M99.21,3.79c14.15,2.68,24.34,16.25,24.85,30.41.34,3.34,1.02,7.95,5.33,6.56,13.69-6.65,27.07-8.01,38.96,1.67,9.5,7.57,14.48,21.08,11.5,32.86-1.85,9.37-9.98,15.56-16.68,21.41-3.45,3.56-1.24,5.84,2.42,8.58,8.28,5.49,14.85,14.25,15.09,24.52.39,7.29-1.66,14.76-5.83,20.73-9.02,14.32-25.76,17.29-40.65,10.17-4.68-2.12-8.63-3.32-9.72,2.52-.98,6.05-1.65,12.78-4.98,18.11-6.54,12.42-21.75,17.8-35.17,14.67-12.62-2.6-22.61-13.21-24.39-26.02-.36-2.15-.54-4.66-1-6.65-1.12-6.41-6.71-3.17-11.06-1.4-25.38,11.17-52.04-13.51-43.61-39.5,2.41-7.22,8.24-12.83,14.23-17.29,4.72-3.58,4.89-6.15.17-9.75C4.92,85.88-.93,72.73,5.06,56.49c8.19-19.53,27.15-25.81,45.96-16.62,7.39,3.39,8.01-2.24,8.7-7.96C61.89,11.52,79.15-.36,99.05,3.76l.16.03ZM108.15,74.72c-7,1.61-.11-12.85.94-16.02.7-1.96,1.36-4,1.89-5.96,3.28-12.4,4.34-30.19-7.83-36.51-4.9-2.58-11.07-3.18-16.53-2.15-14.71,2.5-17.69,17.8-15.28,32.23.56,3.69,1.39,7.23,2.53,10.78,1.13,4.7,6.24,12.98,3.73,17.21-1.63,2.18-7.31-2.5-10.05-6.21-2.76-3.42-5.75-6.68-9.05-9.78-7.83-7.38-18.38-14.37-29.5-11.35-13.15,3.34-20.31,20.9-12.39,32.24,7.82,10.78,23.52,14.09,35.76,16.27,3.29.61,8.81.97,10,3.95.06,3.21-6.41,4.53-10.42,5.32-10.89,2.09-23.36,4.76-31.89,12.28-6.92,5.91-8.59,16.24-4.66,24.32,6.06,12.76,20,15.68,31.66,8.9,8.96-4.74,15.69-12.16,22-20.03,3.02-3.32,5.86-5.92,8.06-5.04,1.79.69.8,6.3-.61,9.75-1.65,4.45-3.28,9.47-4.38,14.56-2.56,11.84-3.65,28.12,8.88,34.37,8.39,3.93,20.93,3.51,27.16-3.99,8.41-10.88,4.24-29.12-.02-41.2-1.69-3.96-4.75-12.9-1.6-13.64,5.03-.04,9.96,8.32,13.44,11.83,12.48,14.9,35.89,26.94,47.81,4.76,10.09-21.68-12.94-32.76-31.53-35.89-4.51-.91-9.6-1.14-13.35-3.4-3.79-2.36-1.23-4.53,2.42-5.8,3.26-1.15,6.89-1.35,10.42-2.05,12.41-2.38,27.7-7.18,32.67-18.18,5.15-11.12-1.88-25.63-13.43-29.18-14.06-4.12-26.86,7.35-36.13,17.53-3.11,3.43-6.36,8.49-10.63,10.06l-.09.03Z"/>
</svg>